<svg width="48" height="48" viewBox="0 0 48 48" fill="none" xmlns="http://www.w3.org/2000/svg">
<path d="M41.4747 13.3222C40.4291 13.3222 39.5678 13.6392 38.8907 14.2733C38.2137 14.8984 37.7766 15.8093 37.5794 17.006H42.7603V19.3637H37.3866L37.3609 19.8326V20.4622L37.3866 20.9042H41.9504V23.2887H37.6051C38.0422 25.4588 39.4178 26.5439 41.7319 26.5439C42.9575 26.5439 44.1359 26.2893 45.2672 25.7803V29.2096C44.273 29.7365 43.0174 30 41.5005 30C39.4007 30 37.6737 29.4061 36.3196 28.2184C34.9654 27.0306 34.1126 25.3874 33.7612 23.2887H32V20.9042H33.517C33.4827 20.6988 33.4656 20.422 33.4656 20.0737L33.4913 19.3637H32V17.006H33.7098C34.0269 14.8448 34.8797 13.1391 36.2681 11.8888C37.6566 10.6296 39.3921 10 41.4747 10C43.086 10 44.5944 10.3662 46 11.0985L44.7401 14.2063C44.1488 13.9294 43.596 13.7151 43.0817 13.5633C42.5675 13.4025 42.0318 13.3222 41.4747 13.3222Z" fill="black"/>
<path d="M2 35.3742C2 36.0704 2.31594 36.738 2.87837 37.2304C3.44079 37.7228 4.20367 37.9996 4.9993 38H27.0007C27.796 37.9996 28.5586 37.723 29.121 37.2309C29.6834 36.7389 29.9995 36.0716 30 35.3758V20.5H2V35.3742ZM22.0013 24.6564C22.0017 24.4827 22.0807 24.3162 22.2209 24.1933C22.3611 24.0703 22.5512 24.0008 22.7498 24H25.2495C25.4483 24.0004 25.6389 24.0697 25.7795 24.1927C25.9201 24.3157 25.9993 24.4825 25.9997 24.6564V26.8436C25.9993 27.0175 25.9201 27.1843 25.7795 27.3073C25.6389 27.4303 25.4483 27.4996 25.2495 27.5H22.7498C22.5509 27.4996 22.3604 27.4303 22.2198 27.3073C22.0792 27.1843 22 27.0175 21.9995 26.8436L22.0013 24.6564ZM22.0013 31.6564C22.0017 31.4825 22.0809 31.3157 22.2215 31.1927C22.3621 31.0697 22.5527 31.0004 22.7515 31H25.2513C25.4501 31.0004 25.6407 31.0697 25.7813 31.1927C25.9219 31.3157 26.0011 31.4825 26.0015 31.6564V33.8436C26.0011 34.0175 25.9219 34.1843 25.7813 34.3073C25.6407 34.4303 25.4501 34.4996 25.2513 34.5H22.7498C22.5509 34.4996 22.3604 34.4303 22.2198 34.3073C22.0792 34.1843 22 34.0175 21.9995 33.8436L22.0013 31.6564ZM14.0008 24.6564C14.0012 24.4825 14.0804 24.3157 14.221 24.1927C14.3616 24.0697 14.5522 24.0004 14.751 24H17.2507C17.4493 24.0004 17.6396 24.0695 17.7801 24.1922C17.9207 24.3149 18.0001 24.4812 18.001 24.6549V26.842C18.0005 27.016 17.9213 27.1827 17.7807 27.3057C17.6401 27.4287 17.4496 27.498 17.2507 27.4984H14.751C14.5522 27.498 14.3616 27.4287 14.221 27.3057C14.0804 27.1827 14.0012 27.016 14.0008 26.842V24.6564ZM14.0008 31.6564C14.0012 31.4825 14.0804 31.3157 14.221 31.1927C14.3616 31.0697 14.5522 31.0004 14.751 31H17.2507C17.4493 31.0004 17.6396 31.0695 17.7801 31.1922C17.9207 31.3149 18.0001 31.4812 18.001 31.6549V33.842C18.0005 34.016 17.9213 34.1827 17.7807 34.3057C17.6401 34.4287 17.4496 34.498 17.2507 34.4984H14.751C14.5522 34.498 14.3616 34.4287 14.221 34.3057C14.0804 34.1827 14.0012 34.016 14.0008 33.842V31.6564ZM6.00025 24.6564C6.00072 24.4825 6.07992 24.3157 6.22052 24.1927C6.36112 24.0697 6.55168 24.0004 6.75052 24H9.25024C9.44908 24.0004 9.63964 24.0697 9.78024 24.1927C9.92084 24.3157 10 24.4825 10.0005 24.6564V26.8436C10 27.0175 9.92084 27.1843 9.78024 27.3073C9.63964 27.4303 9.44908 27.4996 9.25024 27.5H6.75052C6.55168 27.4996 6.36112 27.4303 6.22052 27.3073C6.07992 27.1843 6.00072 27.0175 6.00025 26.8436V24.6564ZM6.00025 31.6564C6.00072 31.4825 6.07992 31.3157 6.22052 31.1927C6.36112 31.0697 6.55168 31.0004 6.75052 31H9.25024C9.44908 31.0004 9.63964 31.0697 9.78024 31.1927C9.92084 31.3157 10 31.4825 10.0005 31.6564V33.8436C10 34.0175 9.92084 34.1843 9.78024 34.3073C9.63964 34.4303 9.44908 34.4996 9.25024 34.5H6.75052C6.55168 34.4996 6.36112 34.4303 6.22052 34.3073C6.07992 34.1843 6.00072 34.0175 6.00025 33.8436V31.6564ZM27.0007 13.5H23.9996V10.8742C23.9987 10.6426 23.8931 10.4207 23.7059 10.257C23.5188 10.0932 23.2652 10.0008 23.0004 10H21.0003C20.7356 10.0008 20.482 10.0932 20.2948 10.257C20.1076 10.4207 20.0021 10.6426 20.0011 10.8742V13.5H12.0006V10.8742C11.9997 10.6423 11.8939 10.4202 11.7063 10.2564C11.5188 10.0926 11.2647 10.0004 10.9997 10H8.99956C8.73485 10.0008 8.48125 10.0932 8.29407 10.257C8.10689 10.4207 8.00132 10.6426 8.00038 10.8742V13.5H4.9993C4.20398 13.5004 3.44137 13.777 2.879 14.2691C2.31662 14.7611 2.00047 15.4284 2 16.1242V18.75H30V16.1242C29.9995 15.4284 29.6834 14.7611 29.121 14.2691C28.5586 13.777 27.796 13.5004 27.0007 13.5Z" fill="black"/>
</svg>
