<svg width="48" height="48" viewBox="0 0 48 48" fill="none" xmlns="http://www.w3.org/2000/svg">
<path d="M29.1579 38.4762C25.89 38.4762 22.7559 37.1768 20.4452 34.8638C18.1344 32.5509 16.8363 29.4139 16.8363 26.1429C16.8363 22.8719 18.1344 19.7348 20.4452 17.4219C22.7559 15.1089 25.89 13.8095 29.1579 13.8095C32.4258 13.8095 35.5599 15.1089 37.8706 17.4219C40.1814 19.7348 41.4795 22.8719 41.4795 26.1429C41.4795 29.4139 40.1814 32.5509 37.8706 34.8638C35.5599 37.1768 32.4258 38.4762 29.1579 38.4762ZM41.5323 16.2586L44.0319 13.7567C43.2398 12.8581 42.4477 12.0476 41.5499 11.2724L39.0504 13.8095C36.322 11.5895 32.8896 10.2857 29.1579 10.2857C24.9563 10.2857 20.9268 11.9564 17.9558 14.9302C14.9849 17.904 13.3158 21.9373 13.3158 26.1429C13.3158 30.3484 14.9849 34.3818 17.9558 37.3555C20.9268 40.3293 24.9563 42 29.1579 42C37.9591 42 45 34.8995 45 26.1429C45 22.4076 43.6974 18.9719 41.5323 16.2586ZM27.3977 27.9048H30.9181V17.3333H27.3977V27.9048ZM34.4386 5H23.8772V8.52381H34.4386V5Z" fill="black"/>
<path d="M6.82787 29.8168H11.6559V33.4413H6.82787V29.8168Z" fill="black"/>
<path d="M4.41443 17.7352H11.6565V21.3597H4.41443V17.7352Z" fill="black"/>
<path d="M2 23.7763H10.4491V27.4008H2V23.7763Z" fill="black"/>
</svg>
