<svg width="48" height="48" viewBox="0 0 48 48" fill="none" xmlns="http://www.w3.org/2000/svg">
<path d="M14.0265 6.00168C12.0738 5.96133 10.176 6.64904 8.70252 7.93093C7.229 9.21282 6.28522 10.9972 6.0549 12.9366C5.82457 14.876 6.32418 16.8318 7.45646 18.4231C8.58875 20.0145 10.2727 21.1276 12.1805 21.5457L10.8565 39.7557C10.8603 40.0715 10.9296 40.3831 11.06 40.6707C11.1903 40.9584 11.379 41.2159 11.6139 41.427C11.8488 41.638 12.125 41.7981 12.4249 41.897C12.7249 41.9959 13.0421 42.0316 13.3565 42.0017H14.6905C15.0054 42.0325 15.3232 41.9975 15.6239 41.899C15.9245 41.8004 16.2014 41.6405 16.437 41.4294C16.6726 41.2182 16.8618 40.9604 16.9925 40.6723C17.1233 40.3842 17.1927 40.072 17.1965 39.7557L15.8725 21.5457C17.7736 21.1213 19.4496 20.0065 20.5757 18.4172C21.7019 16.8278 22.1982 14.8771 21.9684 12.9428C21.7386 11.0085 20.7991 9.22834 19.3318 7.94711C17.8646 6.66588 15.9741 5.97478 14.0265 6.00768V6.00168ZM40.9145 6.00168L38.6925 17.2517H37.0265L35.9145 6.00168H34.8025L33.6905 17.2517H32.0245L29.8045 6.00168H28.6925V20.6277C28.722 20.9531 28.8786 21.2538 29.1283 21.4646C29.378 21.6753 29.7007 21.7792 30.0265 21.7537H33.4985L32.1885 39.7537C32.1923 40.0699 32.2617 40.3818 32.3923 40.6698C32.5229 40.9577 32.7119 41.2154 32.9473 41.4266C33.1826 41.6377 33.4593 41.7977 33.7597 41.8963C34.0601 41.995 34.3778 42.0302 34.6925 41.9997H36.0265C36.3412 42.0302 36.6588 41.995 36.9592 41.8963C37.2597 41.7977 37.5363 41.6377 37.7717 41.4266C38.0071 41.2154 38.1961 40.9577 38.3267 40.6698C38.4573 40.3818 38.5267 40.0699 38.5305 39.7537L37.2205 21.7537H40.6925C41.0179 21.7792 41.3404 21.6756 41.59 21.4653C41.8397 21.2549 41.9965 20.9548 42.0265 20.6297V6.00168H40.9145Z" fill="black"/>
</svg>
