<svg width="48" height="48" viewBox="0 0 48 48" fill="none" xmlns="http://www.w3.org/2000/svg">
<path fill-rule="evenodd" clip-rule="evenodd" d="M38.0112 23.9753L40.5866 19.5242L36.1348 16.951V11.8199H31.0054L28.4333 7.36829L23.9781 9.94343L19.5239 7.36655L16.9498 11.8199H11.8208V16.949L7.36807 19.5227L9.94478 23.9759L7.36757 28.43L11.8188 31.0029V36.1319H16.9498L19.5236 40.5846L23.976 38.0084L28.4319 40.584L31.0029 36.1319H36.1328V31.0029L40.5858 28.429L38.0112 23.9753ZM27.7968 43.6819L23.9768 41.4739L20.1608 43.6819C19.8528 43.8599 19.5068 43.9519 19.1588 43.9519C18.8081 43.9499 18.464 43.8567 18.1603 43.6813C17.8567 43.506 17.6038 43.2546 17.4268 42.9519L15.2188 39.1319H10.8188C10.2883 39.1319 9.77964 38.9212 9.40457 38.5462C9.02949 38.1711 8.81878 37.6624 8.81878 37.1319V32.7339L4.99878 30.5259C4.54119 30.2585 4.20787 29.8211 4.0715 29.3089C3.93512 28.7968 4.00676 28.2515 4.27078 27.7919L6.47878 23.9759L4.27078 20.1599C4.13854 19.9327 4.05251 19.6815 4.01763 19.4209C3.98276 19.1602 3.99972 18.8953 4.06756 18.6412C4.13539 18.3872 4.25276 18.149 4.41291 17.9405C4.57306 17.7319 4.77285 17.5571 5.00078 17.4259L8.82078 15.2179V10.8199C8.82078 10.2895 9.0315 9.7808 9.40657 9.40573C9.78164 9.03066 10.2903 8.81994 10.8208 8.81994H15.2188L17.4268 4.99995C17.692 4.5406 18.1288 4.20542 18.6412 4.06815C19.1535 3.93087 19.6994 4.00274 20.1588 4.26794L23.9788 6.47794L27.7988 4.26995C28.026 4.13782 28.2772 4.05211 28.5377 4.01778C28.7983 3.98344 29.0631 4.00118 29.3168 4.06994C29.8282 4.20896 30.2644 4.54378 30.5308 5.00195L32.7368 8.81994H37.1348C37.6652 8.81994 38.1739 9.03066 38.549 9.40573C38.9241 9.7808 39.1348 10.2895 39.1348 10.8199V15.2199L42.9548 17.4279C43.4138 17.6935 43.7485 18.1305 43.8854 18.6428C44.0223 19.1551 43.9502 19.7008 43.6848 20.1599L41.4768 23.9759L43.6828 27.7919C43.8145 28.0194 43.9001 28.2705 43.9347 28.531C43.9693 28.7915 43.9522 29.0563 43.8844 29.3102C43.8166 29.5641 43.6994 29.8022 43.5396 30.0108C43.3797 30.2194 43.1803 30.3944 42.9528 30.5259L39.1328 32.7339V37.1319C39.1328 37.6624 38.9221 38.1711 38.547 38.5462C38.1719 38.9212 37.6632 39.1319 37.1328 39.1319H32.7348L30.5288 42.9519C30.2628 43.4105 29.8259 43.7449 29.3137 43.8818C28.8015 44.0186 28.256 43.9468 27.7968 43.6819Z" fill="black"/>
<path fill-rule="evenodd" clip-rule="evenodd" d="M18.9768 13.9559C19.7727 13.9562 20.5359 14.2726 21.0985 14.8356C21.6611 15.3986 21.977 16.162 21.9768 16.9579C21.9765 17.7539 21.6601 18.5171 21.0971 19.0797C20.5341 19.6423 19.7707 19.9582 18.9748 19.9579C18.1789 19.9577 17.4157 19.6412 16.853 19.0783C16.2904 18.5153 15.9745 17.7519 15.9748 16.9559C15.975 16.16 16.2915 15.3968 16.8545 14.8342C17.4174 14.2716 18.1809 13.9557 18.9768 13.9559ZM19.5768 33.1559L16.3768 30.7579L28.3768 14.7579L31.5768 17.1559L19.5768 33.1559ZM28.9768 33.9559C28.5827 33.9558 28.1925 33.8781 27.8284 33.7271C27.4644 33.5762 27.1336 33.355 26.855 33.0763C26.5765 32.7975 26.3555 32.4666 26.2048 32.1025C26.0541 31.7383 25.9766 31.348 25.9768 30.9539C25.9769 30.5598 26.0547 30.1696 26.2056 29.8056C26.3565 29.4415 26.5777 29.1108 26.8565 28.8322C27.1352 28.5536 27.4661 28.3327 27.8303 28.182C28.1944 28.0313 28.5847 27.9538 28.9788 27.9539C29.7747 27.9542 30.5379 28.2706 31.1005 28.8336C31.6631 29.3966 31.979 30.16 31.9788 30.9559C31.9785 31.7519 31.6621 32.5151 31.0991 33.0777C30.5361 33.6403 29.7727 33.9562 28.9768 33.9559Z" fill="black"/>
</svg>
