<svg width="48" height="48" viewBox="0 0 48 48" fill="none" xmlns="http://www.w3.org/2000/svg">
<path d="M24 23C22.6739 23 21.4021 22.4732 20.4645 21.5355C19.5268 20.5979 19 19.3261 19 18C19 16.6739 19.5268 15.4021 20.4645 14.4645C21.4021 13.5268 22.6739 13 24 13C25.3261 13 26.5979 13.5268 27.5355 14.4645C28.4732 15.4021 29 16.6739 29 18C29 18.6566 28.8707 19.3068 28.6194 19.9134C28.3681 20.52 27.9998 21.0712 27.5355 21.5355C27.0712 21.9998 26.52 22.3681 25.9134 22.6194C25.3068 22.8707 24.6566 23 24 23V23ZM24 4C20.287 4 16.726 5.475 14.1005 8.1005C11.475 10.726 10 14.287 10 18C10 28.5 24 44 24 44C24 44 38 28.5 38 18C38 14.287 36.525 10.726 33.8995 8.1005C31.274 5.475 27.713 4 24 4V4Z" fill="black"/>
</svg>
