<svg width="48" height="48" viewBox="0 0 48 48" fill="none" xmlns="http://www.w3.org/2000/svg">
<path d="M43.4266 20.9602L38.96 19.6269C38.6511 18.5486 38.2264 17.507 37.6933 16.5202L39.88 12.4269C39.962 12.2724 39.9921 12.0955 39.9656 11.9226C39.9392 11.7496 39.8577 11.5898 39.7333 11.4669L36.5466 8.26687C36.4237 8.14243 36.2639 8.06095 36.0909 8.03453C35.918 8.00811 35.7411 8.03815 35.5866 8.1202L31.52 10.2935C30.5234 9.73442 29.4681 9.28725 28.3733 8.9602L27.04 4.54687C26.9836 4.38423 26.877 4.24367 26.7356 4.14543C26.5943 4.0472 26.4254 3.99635 26.2533 4.0002H21.7466C21.5735 4.00101 21.4051 4.05705 21.266 4.16017C21.1269 4.26329 21.0244 4.4081 20.9733 4.57354L19.64 8.97354C18.536 9.29884 17.4716 9.74604 16.4666 10.3069L12.4666 8.14687C12.3121 8.06482 12.1353 8.03478 11.9623 8.0612C11.7894 8.08762 11.6296 8.1691 11.5066 8.29354L8.26663 11.4535C8.14219 11.5765 8.06071 11.7363 8.03429 11.9092C8.00787 12.0822 8.03791 12.259 8.11996 12.4135L10.28 16.4135C9.72004 17.4143 9.27286 18.4741 8.94663 19.5735L4.53329 20.9069C4.36786 20.958 4.22304 21.0605 4.11993 21.1996C4.01681 21.3387 3.96077 21.5071 3.95996 21.6802V26.1869C3.96077 26.36 4.01681 26.5284 4.11993 26.6675C4.22304 26.8066 4.36786 26.9091 4.53329 26.9602L8.97329 28.2935C9.30309 29.3746 9.75019 30.4164 10.3066 31.4002L8.11996 35.5869C8.03791 35.7414 8.00787 35.9182 8.03429 36.0912C8.06071 36.2641 8.14219 36.4239 8.26663 36.5469L11.4533 39.7335C11.5763 39.858 11.7361 39.9395 11.909 39.9659C12.0819 39.9923 12.2588 39.9623 12.4133 39.8802L16.5333 37.6802C17.5079 38.2061 18.536 38.6263 19.6 38.9335L20.9333 43.4269C20.9844 43.5923 21.0869 43.7371 21.226 43.8402C21.3651 43.9434 21.5335 43.9994 21.7066 44.0002H26.2133C26.3864 43.9994 26.5548 43.9434 26.6939 43.8402C26.833 43.7371 26.9355 43.5923 26.9866 43.4269L28.32 38.9202C29.3749 38.6113 30.3939 38.1912 31.36 37.6669L35.5066 39.8802C35.6611 39.9623 35.838 39.9923 36.0109 39.9659C36.1839 39.9395 36.3437 39.858 36.4666 39.7335L39.6533 36.5469C39.7777 36.4239 39.8592 36.2641 39.8856 36.0912C39.9121 35.9182 39.882 35.7414 39.8 35.5869L37.5866 31.4535C38.1164 30.4838 38.5411 29.4602 38.8533 28.4002L43.3466 27.0669C43.5121 27.0158 43.6569 26.9132 43.76 26.7741C43.8631 26.635 43.9192 26.4667 43.92 26.2935V21.7469C43.9278 21.5811 43.8848 21.4168 43.7966 21.2762C43.7084 21.1356 43.5793 21.0253 43.4266 20.9602V20.9602ZM24 31.3335C22.5496 31.3335 21.1317 30.9034 19.9258 30.0976C18.7198 29.2918 17.7799 28.1465 17.2248 26.8065C16.6698 25.4666 16.5246 23.9921 16.8075 22.5695C17.0905 21.147 17.7889 19.8403 18.8145 18.8148C19.8401 17.7892 21.1468 17.0907 22.5693 16.8078C23.9918 16.5248 25.4663 16.67 26.8063 17.2251C28.1463 17.7801 29.2916 18.7201 30.0974 19.926C30.9032 21.132 31.3333 22.5498 31.3333 24.0002C31.3333 25.9451 30.5607 27.8104 29.1854 29.1857C27.8101 30.5609 25.9449 31.3335 24 31.3335V31.3335Z" fill="black"/>
</svg>
