<svg width="48" height="48" viewBox="0 0 48 48" fill="none" xmlns="http://www.w3.org/2000/svg">
<path d="M35.12 41.9997C34.8002 42.001 34.4847 41.9255 34.2 41.7797L24 36.4397L13.8 41.7797C13.4688 41.9538 13.0954 42.0316 12.7222 42.0041C12.349 41.9766 11.991 41.8449 11.6889 41.6241C11.3868 41.4032 11.1527 41.1021 11.0132 40.7548C10.8738 40.4075 10.8346 40.0281 10.9 39.6597L12.9 28.3997L4.66001 20.3997C4.40293 20.1431 4.22056 19.8214 4.13247 19.4691C4.04438 19.1167 4.0539 18.747 4.16001 18.3997C4.27593 18.0442 4.48917 17.7284 4.77551 17.488C5.06186 17.2476 5.40986 17.0923 5.78001 17.0397L17.18 15.3797L22.2 5.11968C22.3638 4.78153 22.6195 4.49636 22.9378 4.29682C23.2562 4.09729 23.6243 3.99146 24 3.99146C24.3757 3.99146 24.7438 4.09729 25.0622 4.29682C25.3805 4.49636 25.6362 4.78153 25.8 5.11968L30.88 15.3597L42.28 17.0197C42.6502 17.0723 42.9982 17.2276 43.2845 17.468C43.5709 17.7084 43.7841 18.0242 43.9 18.3797C44.0061 18.727 44.0156 19.0967 43.9276 19.4491C43.8395 19.8014 43.6571 20.1231 43.4 20.3797L35.16 28.3797L37.16 39.6397C37.2314 40.0146 37.194 40.4022 37.0523 40.7566C36.9105 41.111 36.6703 41.4174 36.36 41.6397C35.9978 41.8935 35.5618 42.0201 35.12 41.9997V41.9997Z" fill="black"/>
</svg>
