<svg width="48" height="48" viewBox="0 0 48 48" fill="none" xmlns="http://www.w3.org/2000/svg">
<path d="M24.0044 17.2485C22.6691 17.2489 21.3638 17.6451 20.2536 18.387C19.1435 19.129 18.2784 20.1833 17.7676 21.4167C17.2569 22.6502 17.1234 24.0073 17.3842 25.3166C17.645 26.6258 18.2882 27.8283 19.2326 28.7721C20.177 29.716 21.3801 30.3586 22.6899 30.6189C23.9996 30.8792 25.3572 30.7454 26.5909 30.2345C27.8246 29.7235 28.879 28.8584 29.6209 27.7484C30.3627 26.6384 30.7587 25.3334 30.7587 23.9985C30.7555 22.2089 30.0428 20.4935 28.7768 19.2283C27.5107 17.9631 25.7946 17.2511 24.0044 17.2485V17.2485ZM41.3362 22.9085L34.676 19.5845L37.0328 12.5245C37.1049 12.3099 37.1157 12.0795 37.0639 11.8592C37.0122 11.6389 36.8999 11.4373 36.7399 11.2773C36.5798 11.1172 36.3782 11.0051 36.1578 10.9533C35.9373 10.9016 35.7069 10.9124 35.4923 10.9845L28.4299 13.3385L25.0948 6.67447C24.9937 6.47184 24.8382 6.30139 24.6456 6.18225C24.453 6.06311 24.2309 6 24.0044 6C23.7779 6 23.5559 6.06311 23.3633 6.18225C23.1707 6.30139 23.0152 6.47184 22.9141 6.67447L19.589 13.3325L12.5186 10.9765C12.304 10.9044 12.0735 10.8936 11.8531 10.9453C11.6327 10.9971 11.4311 11.1092 11.271 11.2693C11.1109 11.4293 10.9987 11.6309 10.947 11.8512C10.8952 12.0715 10.906 12.3019 10.9781 12.5165L13.3349 19.5765L6.67469 22.9085C6.472 23.0095 6.30149 23.165 6.18231 23.3576C6.06313 23.5501 6 23.772 6 23.9985C6 24.2249 6.06313 24.4468 6.18231 24.6394C6.30149 24.8319 6.472 24.9874 6.67469 25.0885L13.3349 28.4145L10.9781 35.4825C10.906 35.697 10.8952 35.9274 10.947 36.1477C10.9987 36.3681 11.1109 36.5696 11.271 36.7297C11.4311 36.8897 11.6327 37.0019 11.8531 37.0536C12.0735 37.1054 12.304 37.0946 12.5186 37.0225L19.581 34.6665L22.9081 41.3245C23.0092 41.5271 23.1647 41.6975 23.3573 41.8167C23.5499 41.9358 23.7719 41.9989 23.9984 41.9989C24.2249 41.9989 24.4469 41.9358 24.6396 41.8167C24.8322 41.6975 24.9877 41.5271 25.0888 41.3245L28.4059 34.6665L35.4682 37.0225C35.6829 37.0946 35.9133 37.1054 36.1337 37.0536C36.3542 37.0019 36.5558 36.8897 36.7158 36.7297C36.8759 36.5696 36.9882 36.3681 37.0399 36.1477C37.0917 35.9274 37.0809 35.697 37.0088 35.4825L34.652 28.4225L41.3122 25.0965C41.5171 24.9974 41.6902 24.8428 41.8117 24.6504C41.9333 24.458 41.9985 24.2354 42 24.0078C42.0014 23.7803 41.9391 23.5568 41.82 23.3629C41.7009 23.1689 41.5298 23.0122 41.3262 22.9105L41.3362 22.9085ZM30.3706 30.3625C29.1115 31.6211 27.5073 32.4783 25.7609 32.8255C24.0145 33.1728 22.2043 32.9946 20.5592 32.3134C18.9141 31.6322 17.5081 30.4786 16.5188 28.9986C15.5295 27.5186 15.0015 25.7785 15.0015 23.9985C15.0015 22.2184 15.5295 20.4784 16.5188 18.9984C17.5081 17.5183 18.9141 16.3648 20.5592 15.6836C22.2043 15.0024 24.0145 14.8241 25.7609 15.1714C27.5073 15.5187 29.1115 16.3758 30.3706 17.6345C31.2066 18.4702 31.8697 19.4624 32.3222 20.5543C32.7746 21.6462 33.0075 22.8166 33.0075 23.9985C33.0075 25.1804 32.7746 26.3507 32.3222 27.4426C31.8697 28.5346 31.2066 29.5267 30.3706 30.3625V30.3625Z" fill="black"/>
</svg>
