<svg width="48" height="48" viewBox="0 0 48 48" fill="none" xmlns="http://www.w3.org/2000/svg">
<path d="M8 8C6.93913 8 5.92172 8.42143 5.17157 9.17157C4.42143 9.92172 4 10.9391 4 12V20C5.06087 20 6.07828 20.4214 6.82843 21.1716C7.57857 21.9217 8 22.9391 8 24C8 25.0609 7.57857 26.0783 6.82843 26.8284C6.07828 27.5786 5.06087 28 4 28V36C4 37.0609 4.42143 38.0783 5.17157 38.8284C5.92172 39.5786 6.93913 40 8 40H40C41.0609 40 42.0783 39.5786 42.8284 38.8284C43.5786 38.0783 44 37.0609 44 36V28C42.9391 28 41.9217 27.5786 41.1716 26.8284C40.4214 26.0783 40 25.0609 40 24C40 22.9391 40.4214 21.9217 41.1716 21.1716C41.9217 20.4214 42.9391 20 44 20V12C44 10.9391 43.5786 9.92172 42.8284 9.17157C42.0783 8.42143 41.0609 8 40 8H8ZM31 14L34 17L17 34L14 31L31 14ZM17.62 14.08C19.58 14.08 21.16 15.66 21.16 17.62C21.16 18.5589 20.787 19.4593 20.1232 20.1232C19.4593 20.787 18.5589 21.16 17.62 21.16C15.66 21.16 14.08 19.58 14.08 17.62C14.08 16.6811 14.453 15.7807 15.1168 15.1168C15.7807 14.453 16.6811 14.08 17.62 14.08V14.08ZM30.38 26.84C32.34 26.84 33.92 28.42 33.92 30.38C33.92 31.3189 33.547 32.2193 32.8832 32.8832C32.2193 33.547 31.3189 33.92 30.38 33.92C28.42 33.92 26.84 32.34 26.84 30.38C26.84 29.4411 27.213 28.5407 27.8768 27.8768C28.5407 27.213 29.4411 26.84 30.38 26.84V26.84Z" fill="black"/>
</svg>
