<svg width="48" height="48" viewBox="0 0 48 48" fill="none" xmlns="http://www.w3.org/2000/svg">
<path d="M26.9939 19.9936V21.9937C26.9935 22.1925 26.9143 22.3831 26.7736 22.5237C26.633 22.6643 26.4424 22.7435 26.2436 22.7439H22.7478V26.2445C22.7473 26.4434 22.6681 26.6339 22.5275 26.7745C22.3869 26.9151 22.1963 26.9943 21.9974 26.9948H19.9917C19.7928 26.9943 19.6023 26.9151 19.4616 26.7745C19.321 26.6339 19.2418 26.4434 19.2413 26.2445V22.7493H15.742C15.5431 22.7488 15.3526 22.6696 15.2119 22.529C15.0713 22.3884 14.9921 22.1978 14.9916 21.999V19.9936C14.9921 19.7947 15.0713 19.6042 15.2119 19.4636C15.3526 19.323 15.5431 19.2438 15.742 19.2433H19.2413V15.7445C19.2418 15.5456 19.321 15.3551 19.4616 15.2145C19.6023 15.0739 19.7928 14.9947 19.9917 14.9942H21.9921C22.091 14.9937 22.1891 15.0128 22.2806 15.0503C22.3722 15.0877 22.4554 15.1429 22.5256 15.2126C22.5958 15.2823 22.6516 15.3651 22.6897 15.4564C22.7278 15.5477 22.7476 15.6456 22.7478 15.7445V19.2433H26.2489C26.4468 19.2452 26.6361 19.325 26.7755 19.4654C26.915 19.6059 26.9935 19.7956 26.9939 19.9936V19.9936ZM39.5599 37.79L37.7907 39.559C37.6518 39.6987 37.4867 39.8097 37.3048 39.8853C37.123 39.961 36.9279 40 36.7309 40C36.5339 40 36.3388 39.961 36.157 39.8853C35.9751 39.8097 35.81 39.6987 35.6711 39.559L29.4317 33.3276C29.292 33.1874 29.1814 33.021 29.1063 32.8379C29.0313 32.6548 28.9932 32.4587 28.9943 32.2608V31.2421C26.3854 33.2777 23.0981 34.2416 19.8029 33.9373C16.5077 33.6331 13.4526 32.0836 11.2605 29.6048C9.06848 27.126 7.90457 23.9046 8.00613 20.5974C8.10768 17.2901 9.46704 14.1462 11.807 11.8065C14.147 9.46684 17.2915 8.10767 20.5992 8.00613C23.9069 7.90459 27.1287 9.06832 29.6079 11.2601C32.087 13.4518 33.6367 16.5065 33.941 19.8012C34.2453 23.096 33.2812 26.3828 31.2454 28.9913H32.2643C32.4622 28.9902 32.6583 29.0283 32.8414 29.1033C33.0246 29.1784 33.191 29.289 33.3311 29.4287L39.5634 35.6601C39.8438 35.9439 40.0007 36.3269 40 36.7258C39.9993 37.1247 39.8412 37.5071 39.5599 37.79V37.79ZM29.4957 20.9945C29.4957 19.3134 28.9972 17.67 28.063 16.2722C27.1289 14.8744 25.8012 13.7849 24.2478 13.1416C22.6944 12.4982 20.9851 12.3299 19.3361 12.6579C17.687 12.9858 16.1722 13.7954 14.9833 14.9841C13.7944 16.1729 12.9848 17.6874 12.6567 19.3362C12.3287 20.9851 12.4971 22.6941 13.1405 24.2473C13.7839 25.8005 14.8736 27.128 16.2716 28.062C17.6696 28.996 19.3132 29.4945 20.9946 29.4945C22.1111 29.4952 23.2168 29.2758 24.2484 28.8488C25.28 28.4219 26.2173 27.7958 27.0067 27.0063C27.7961 26.2169 28.4221 25.2796 28.8489 24.248C29.2757 23.2164 29.4949 22.1108 29.494 20.9945H29.4957Z" fill="black"/>
</svg>
