<svg width="48" height="48" viewBox="0 0 48 48" fill="none" xmlns="http://www.w3.org/2000/svg">
<path d="M7.164 37.87H40.892V42H7.164V37.87ZM41.904 18.538C41.8519 18.1707 41.7231 17.8185 41.526 17.5043C41.3288 17.1902 41.0676 16.921 40.7595 16.7144C40.4515 16.5078 40.1033 16.3684 39.7378 16.3053C39.3723 16.2422 38.9975 16.2567 38.638 16.348L29.21 19.29L16.962 6L13.536 7.054L20.886 21.854L12.072 24.61L8.574 21.43L6 22.23L9.23 28.756L10.596 31.502L13.436 30.614L22.856 27.69L30.578 25.29L40.004 22.358C40.7312 22.0614 41.3253 21.5098 41.6751 20.8066C42.0248 20.1035 42.1062 19.2969 41.904 18.538Z" fill="black"/>
</svg>
