<svg width="48" height="48" viewBox="0 0 48 48" fill="none" xmlns="http://www.w3.org/2000/svg">
<path d="M10.0001 32.038H5.20006C5.04146 32.038 4.88443 32.0694 4.73805 32.1305C4.59167 32.1915 4.45885 32.281 4.34726 32.3937C4.23567 32.5064 4.14753 32.6401 4.08794 32.7871C4.02834 32.9341 3.99847 33.0914 4.00006 33.25V38.05C4.00006 38.3683 4.12649 38.6735 4.35153 38.8985C4.57658 39.1236 4.8818 39.25 5.20006 39.25H10.0001C10.3183 39.25 10.6235 39.1236 10.8486 38.8985C11.0736 38.6735 11.2001 38.3683 11.2001 38.05V33.25C11.2016 33.0914 11.1718 32.9341 11.1122 32.7871C11.0526 32.6401 10.9644 32.5064 10.8529 32.3937C10.7413 32.281 10.6084 32.1915 10.4621 32.1305C10.3157 32.0694 10.1587 32.038 10.0001 32.038V32.038ZM10.0001 8H5.20006C4.8818 8 4.57658 8.12643 4.35153 8.35147C4.12649 8.57652 4.00006 8.88174 4.00006 9.2V14C4.00006 14.3183 4.12649 14.6235 4.35153 14.8485C4.57658 15.0736 4.8818 15.2 5.20006 15.2H10.0001C10.3183 15.2 10.6235 15.0736 10.8486 14.8485C11.0736 14.6235 11.2001 14.3183 11.2001 14V9.2C11.2001 8.88174 11.0736 8.57652 10.8486 8.35147C10.6235 8.12643 10.3183 8 10.0001 8V8ZM10.0001 20.02H5.20006C4.8818 20.02 4.57658 20.1464 4.35153 20.3715C4.12649 20.5965 4.00006 20.9017 4.00006 21.22V26.02C4.00006 26.3383 4.12649 26.6435 4.35153 26.8685C4.57658 27.0936 4.8818 27.22 5.20006 27.22H10.0001C10.3183 27.22 10.6235 27.0936 10.8486 26.8685C11.0736 26.6435 11.2001 26.3383 11.2001 26.02V21.22C11.2001 20.9017 11.0736 20.5965 10.8486 20.3715C10.6235 20.1464 10.3183 20.02 10.0001 20.02V20.02ZM41.2601 33.25H17.2221C16.9038 33.25 16.5986 33.3764 16.3735 33.6015C16.1485 33.8265 16.0221 34.1317 16.0221 34.45V36.85C16.0221 37.0076 16.0531 37.1636 16.1134 37.3092C16.1737 37.4548 16.2621 37.5871 16.3735 37.6985C16.485 37.81 16.6172 37.8984 16.7628 37.9587C16.9084 38.019 17.0645 38.05 17.2221 38.05H41.2601C41.4176 38.05 41.5737 38.019 41.7193 37.9587C41.8649 37.8984 41.9972 37.81 42.1086 37.6985C42.22 37.5871 42.3084 37.4548 42.3687 37.3092C42.429 37.1636 42.4601 37.0076 42.4601 36.85V34.45C42.4601 34.2924 42.429 34.1364 42.3687 33.9908C42.3084 33.8452 42.22 33.7129 42.1086 33.6015C41.9972 33.49 41.8649 33.4016 41.7193 33.3413C41.5737 33.281 41.4176 33.25 41.2601 33.25V33.25ZM41.2601 9.212H17.2221C16.9038 9.212 16.5986 9.33843 16.3735 9.56347C16.1485 9.78852 16.0221 10.0937 16.0221 10.412V12.812C16.0221 13.1303 16.1485 13.4355 16.3735 13.6605C16.5986 13.8856 16.9038 14.012 17.2221 14.012H41.2601C41.4176 14.012 41.5737 13.981 41.7193 13.9207C41.8649 13.8603 41.9972 13.772 42.1086 13.6605C42.22 13.5491 42.3084 13.4168 42.3687 13.2712C42.429 13.1256 42.4601 12.9696 42.4601 12.812V10.412C42.4614 10.2536 42.4313 10.0965 42.3716 9.94971C42.3119 9.80296 42.2237 9.66949 42.1121 9.557C42.0006 9.44451 41.8678 9.35522 41.7216 9.29429C41.5754 9.23336 41.4185 9.20199 41.2601 9.202V9.212ZM41.2601 21.232H17.2221C16.9038 21.232 16.5986 21.3584 16.3735 21.5835C16.1485 21.8085 16.0221 22.1137 16.0221 22.432V24.832C16.0221 25.1503 16.1485 25.4555 16.3735 25.6805C16.5986 25.9056 16.9038 26.032 17.2221 26.032H41.2601C41.4176 26.032 41.5737 26.001 41.7193 25.9407C41.8649 25.8803 41.9972 25.792 42.1086 25.6805C42.22 25.5691 42.3084 25.4368 42.3687 25.2912C42.429 25.1456 42.4601 24.9896 42.4601 24.832V22.432C42.4614 22.2736 42.4313 22.1165 42.3716 21.9697C42.3119 21.823 42.2237 21.6895 42.1121 21.577C42.0006 21.4645 41.8678 21.3752 41.7216 21.3143C41.5754 21.2534 41.4185 21.222 41.2601 21.222V21.232Z" fill="black"/>
</svg>
