<svg width="48" height="48" viewBox="0 0 48 48" fill="none" xmlns="http://www.w3.org/2000/svg">
<path d="M40.9733 31.4389L33.0982 28.0638C32.7618 27.9204 32.3879 27.8902 32.0328 27.9777C31.6777 28.0652 31.3607 28.2657 31.1294 28.549L27.6419 32.81C22.1685 30.2293 17.7636 25.8245 15.183 20.3511L19.444 16.8635C19.7278 16.6327 19.9287 16.3156 20.0163 15.9604C20.1038 15.6052 20.0732 15.2311 19.9291 14.8948L16.5541 7.01961C16.396 6.65708 16.1163 6.36109 15.7633 6.18267C15.4103 6.00425 15.0061 5.95459 14.6205 6.04225L7.30784 7.72978C6.93599 7.81565 6.60424 8.02502 6.36671 8.32371C6.12918 8.62241 5.99991 8.9928 6 9.37442C6 27.4099 20.6182 42 38.6256 42C39.0073 42.0002 39.3779 41.871 39.6767 41.6335C39.9755 41.396 40.185 41.0641 40.2709 40.6922L41.9584 33.3795C42.0455 32.992 41.9948 32.5862 41.815 32.232C41.6352 31.8778 41.3376 31.5973 40.9733 31.4389V31.4389Z" fill="black"/>
</svg>
