<?xml version="1.0" standalone="no"?>
<!DOCTYPE svg PUBLIC "-//W3C//DTD SVG 20010904//EN"
 "http://www.w3.org/TR/2001/REC-SVG-20010904/DTD/svg10.dtd">
<svg version="1.0" xmlns="http://www.w3.org/2000/svg"
 width="512.000000pt" height="512.000000pt" viewBox="0 0 512.000000 512.000000"
 preserveAspectRatio="xMidYMid meet">
<metadata>
Created by potrace 1.11, written by Peter Selinger 2001-2013
</metadata>
<g transform="translate(0.000000,512.000000) scale(0.100000,-0.100000)"
fill="#000000" stroke="none">
<path d="M2055 4861 c-17 -55 -35 -198 -35 -283 0 -156 28 -253 95 -327 l36
-40 -43 -11 c-335 -87 -609 -239 -852 -470 -338 -321 -556 -761 -616 -1240
-13 -109 -13 -381 0 -490 91 -736 553 -1358 1205 -1623 345 -140 728 -174
1090 -96 406 87 799 333 1068 669 497 619 593 1479 247 2199 -106 218 -232
392 -411 567 -280 271 -617 445 -988 508 -52 9 -96 17 -97 19 -2 1 -10 35 -18
75 -8 40 -30 100 -47 133 -60 113 -232 264 -389 344 -51 25 -215 85 -235 85
-2 0 -6 -8 -10 -19z m772 -1565 c171 -47 221 -84 230 -168 10 -85 -47 -158
-124 -158 -17 0 -74 14 -125 32 -178 60 -383 49 -555 -31 -524 -246 -630 -974
-199 -1367 159 -146 338 -211 551 -201 227 10 408 104 566 293 74 89 97 104
156 104 49 0 90 -27 114 -78 40 -82 11 -147 -128 -293 -193 -202 -466 -319
-743 -319 -709 0 -1217 716 -1014 1428 84 296 282 541 544 676 109 56 155 72
265 96 130 28 333 22 462 -14z"/>
</g>
</svg>
